<svg width="198" height="47" viewBox="0 0 198 47" fill="none" xmlns="http://www.w3.org/2000/svg">
<g clip-path="url(#clip0_1181_138)">
<path d="M23.5015 47C36.481 47 47.003 36.4787 47.003 23.5C47.003 10.5213 36.481 0 23.5015 0C10.522 0 0 10.5213 0 23.5C0 36.4787 10.522 47 23.5015 47Z" fill="#141414"/>
<path d="M11.2891 30.55L23.5008 37.6" stroke="white" stroke-width="2" stroke-linecap="round" stroke-dasharray="3 4"/>
<path d="M23.502 37.6L35.7137 30.55" stroke="white" stroke-width="2" stroke-linecap="round" stroke-dasharray="3 4"/>
<path d="M35.7137 30.55L23.502 23.5" stroke="white" stroke-width="2" stroke-linecap="round" stroke-dasharray="3 4"/>
<path d="M23.5008 23.5L11.2891 30.55" stroke="white" stroke-width="2" stroke-linecap="round" stroke-dasharray="3 4"/>
<path d="M11.2891 30.55V16.45" stroke="white" stroke-width="2" stroke-linecap="round" stroke-dasharray="3 4"/>
<path d="M23.502 37.6V23.5" stroke="white" stroke-width="2" stroke-linecap="round" stroke-dasharray="3 4"/>
<path d="M23.502 23.4999V9.3999" stroke="white" stroke-width="2" stroke-linecap="round" stroke-dasharray="3 4"/>
<path d="M35.7129 30.55V16.45" stroke="white" stroke-width="2" stroke-linecap="round" stroke-dasharray="3 4"/>
<path d="M11.2891 16.45L23.5008 23.5" stroke="white" stroke-width="2" stroke-linecap="round" stroke-dasharray="3 4"/>
<path d="M23.502 23.5L35.7137 16.45" stroke="white" stroke-width="2" stroke-linecap="round" stroke-dasharray="3 4"/>
<path d="M35.7137 16.4499L23.502 9.3999" stroke="white" stroke-width="2" stroke-linecap="round" stroke-dasharray="3 4"/>
<path d="M23.5008 9.3999L11.2891 16.4499" stroke="white" stroke-width="2" stroke-linecap="round" stroke-dasharray="3 4"/>
<path d="M192.648 9.3999H192.902C193.303 9.3999 193.503 9.64389 193.503 10.1319L193.408 31.5901C193.429 32.9 193.725 33.9145 194.295 34.6336C194.886 35.3527 195.657 35.7123 196.607 35.7123H197.399C197.567 35.7123 197.705 35.7893 197.811 35.9434C197.937 36.0975 198 36.2645 198 36.4443V36.7525C198 37.2661 197.525 37.5229 196.575 37.5229C195.182 37.5229 194.063 37.0093 193.218 35.982C192.373 34.929 191.941 33.4779 191.92 31.6287L192.015 10.1319C192.057 9.64389 192.268 9.3999 192.648 9.3999ZM190.21 18.2606H190.97C191.16 18.2606 191.308 18.3377 191.413 18.4918C191.54 18.6459 191.603 18.8256 191.603 19.0311V19.2622C191.603 19.4677 191.54 19.6475 191.413 19.8016C191.308 19.9557 191.16 20.0327 190.97 20.0327H190.21C190.02 20.0327 189.861 19.9557 189.735 19.8016C189.629 19.6475 189.576 19.4677 189.576 19.2622V19.0311C189.576 18.8256 189.629 18.6459 189.735 18.4918C189.861 18.3377 190.02 18.2606 190.21 18.2606ZM194.453 18.2606H196.797C196.966 18.2606 197.103 18.3377 197.208 18.4918C197.335 18.6459 197.399 18.8256 197.399 19.0311V19.2622C197.399 19.4677 197.335 19.6475 197.208 19.8016C197.103 19.9557 196.966 20.0327 196.797 20.0327H194.453C194.284 20.0327 194.137 19.9557 194.01 19.8016C193.883 19.6475 193.82 19.4677 193.82 19.2622V19.0311C193.82 18.8256 193.883 18.6459 194.01 18.4918C194.137 18.3377 194.284 18.2606 194.453 18.2606Z" fill="black"/>
<path d="M175.76 24.5402C175.76 22.5112 176.267 20.9446 177.28 19.8402C178.294 18.7358 179.613 18.1836 181.239 18.1836C182.864 18.1836 184.173 18.7486 185.166 19.8786C186.158 20.983 186.654 22.5369 186.654 24.5402V26.8516C186.654 27.956 186.221 28.5082 185.356 28.5082H178.515C178.325 28.5082 178.167 28.4312 178.04 28.2771C177.935 28.123 177.882 27.9432 177.882 27.7377V27.4295C177.882 27.224 177.935 27.0443 178.04 26.8902C178.167 26.7361 178.325 26.659 178.515 26.659H185.166V24.5787C185.166 23.1148 184.796 21.9975 184.058 21.227C183.318 20.4308 182.379 20.0328 181.239 20.0328C180.099 20.0328 179.149 20.4308 178.388 21.227C177.65 21.9975 177.28 23.1148 177.28 24.5787V31.2049C177.28 32.6689 177.65 33.7989 178.388 34.5951C179.149 35.3656 180.088 35.7508 181.207 35.7508C182.347 35.7508 183.287 35.3785 184.026 34.6337C184.786 33.8631 185.166 32.7716 185.166 31.359C185.166 31.1536 185.219 30.9738 185.324 30.8197C185.451 30.6656 185.599 30.5885 185.767 30.5885H186.021C186.211 30.5885 186.359 30.6656 186.464 30.8197C186.591 30.9738 186.654 31.1536 186.654 31.359C186.633 33.3366 186.126 34.8776 185.134 35.982C184.142 37.0607 182.843 37.6001 181.239 37.6001C179.634 37.6001 178.314 37.0479 177.28 35.9435C176.267 34.8134 175.76 33.2467 175.76 31.2435V24.5402Z" fill="black"/>
<path d="M161.108 9.3999H161.392C161.794 9.3999 161.994 9.64389 161.994 10.1319V34.8263C162.459 33.953 163.841 31.1407 166.143 26.3893C168.444 21.6379 169.721 19.0054 169.975 18.4918C170.059 18.3377 170.217 18.2606 170.45 18.2606H171.147C171.421 18.2606 171.558 18.389 171.558 18.6459C171.558 18.9027 170.777 20.5978 169.215 23.7311L167.409 27.3524L171.558 36.5984C171.664 36.8038 171.717 36.9836 171.717 37.1377C171.717 37.3946 171.579 37.5229 171.305 37.5229H170.608C170.439 37.5229 170.27 37.3946 170.102 37.1377L166.523 29.2016C164.327 33.6705 163.103 36.1104 162.849 36.5213C162.617 36.9323 162.406 37.2019 162.216 37.3304C162.047 37.4588 161.846 37.5229 161.614 37.5229C160.875 37.5229 160.506 37.0222 160.506 36.0205V10.1319C160.506 9.64389 160.706 9.3999 161.108 9.3999Z" fill="black"/>
<path d="M157.022 18.1836C157.423 18.1836 157.624 18.4404 157.624 18.9541V19.2238C157.624 19.4292 157.56 19.609 157.433 19.7631C157.328 19.9172 157.19 19.9943 157.022 19.9943C155.818 19.9943 154.857 20.3666 154.139 21.1115C153.422 21.8563 153.063 22.9992 153.063 24.5402V36.7525C153.063 36.9837 153 37.1763 152.873 37.3304C152.746 37.4588 152.598 37.523 152.43 37.523H152.208C152.039 37.523 151.891 37.4588 151.765 37.3304C151.638 37.1763 151.574 36.9837 151.574 36.7525V24.5402C151.574 22.4342 152.06 20.8547 153.031 19.8016C154.003 18.7229 155.333 18.1836 157.022 18.1836Z" fill="black"/>
<path d="M135.775 24.5402C135.775 22.5112 136.282 20.9446 137.295 19.8402C138.309 18.7358 139.628 18.1836 141.254 18.1836C142.88 18.1836 144.189 18.7486 145.181 19.8786C146.174 20.983 146.67 22.5369 146.67 24.5402V33.0156C146.67 34.0172 146.733 34.7107 146.859 35.096C147.007 35.4555 147.282 35.6995 147.683 35.8279L148.031 35.9435C148.348 36.0206 148.506 36.1875 148.506 36.4443V36.8681C148.506 37.3047 148.295 37.523 147.873 37.523C146.838 37.523 146.131 37.1506 145.751 36.4058C145.371 35.661 145.181 34.5181 145.181 32.9771V24.5402C145.181 23.0762 144.812 21.959 144.073 21.1885C143.333 20.3924 142.394 19.9943 141.254 19.9943C140.114 19.9943 139.164 20.3924 138.404 21.1885C137.644 21.959 137.264 23.0762 137.264 24.5402V31.1279C137.264 32.6432 137.57 33.7861 138.182 34.5566C138.815 35.3271 139.713 35.7124 140.874 35.7124C142.056 35.7124 143.027 35.1345 143.788 33.9787C143.935 33.7476 144.136 33.632 144.389 33.632C144.664 33.632 144.854 33.8246 144.959 34.2099C145.023 34.5181 144.991 34.7878 144.865 35.0189C143.956 36.6883 142.647 37.523 140.937 37.523C139.248 37.523 137.96 36.9708 137.074 35.8665C136.208 34.7621 135.775 33.1954 135.775 31.1664V24.5402Z" fill="black"/>
<path d="M129.904 10.4402C130.242 10.4402 130.538 10.5814 130.791 10.8639C131.044 11.1208 131.171 11.5317 131.171 12.0968V36.7526C131.171 36.9581 131.108 37.1378 130.981 37.2919C130.875 37.446 130.727 37.5231 130.538 37.5231H130.253C130.062 37.5231 129.904 37.446 129.777 37.2919C129.672 37.1378 129.619 36.9581 129.619 36.7526V13.8304L124.109 30.396C123.877 31.0638 123.497 31.4362 122.968 31.5132C122.356 31.5132 121.924 31.1537 121.67 30.4345L115.843 13.6763V36.7526C115.843 36.9581 115.78 37.1378 115.653 37.2919C115.527 37.446 115.379 37.5231 115.21 37.5231H114.893C114.724 37.5231 114.577 37.446 114.45 37.2919C114.344 37.1378 114.291 36.9581 114.291 36.7526V12.0968C114.291 10.9924 114.703 10.4402 115.527 10.4402C116.097 10.4402 116.518 10.8254 116.793 11.5959L122.874 29.0477L128.637 11.5959C128.933 10.8254 129.355 10.4402 129.904 10.4402Z" fill="black"/>
<path d="M106.406 9.3999H106.659C107.06 9.3999 107.261 9.64389 107.261 10.1319V31.5901C107.261 34.3383 108.221 35.7123 110.142 35.7123H110.65C110.818 35.7123 110.956 35.7893 111.061 35.9434C111.188 36.0975 111.251 36.2645 111.251 36.4443V36.7525C111.251 37.2661 110.871 37.5229 110.111 37.5229C108.675 37.5229 107.588 37.0222 106.849 36.0205C106.11 35.0188 105.751 33.5549 105.772 31.6287V10.1319C105.772 9.64389 105.983 9.3999 106.406 9.3999Z" fill="black"/>
<path d="M90.6348 18.1836H90.8887C91.3105 18.1836 91.522 18.4404 91.522 18.9541V31.1279C91.522 32.6432 91.8281 33.7861 92.4403 34.5566C93.0737 35.3271 93.9603 35.7124 95.1007 35.7124C96.2405 35.7124 97.2223 35.1602 98.0454 34.0558C98.2358 33.7733 98.4362 33.632 98.6477 33.632C99.0484 33.632 99.2493 33.9146 99.2493 34.4795C99.2493 34.7107 99.1964 34.9162 99.0907 35.096C98.6682 35.8151 98.0772 36.4058 97.3175 36.8681C96.5572 37.3047 95.7552 37.523 94.9103 37.523C93.4538 37.523 92.2711 36.9708 91.3634 35.8665C90.4768 34.7364 90.0332 33.1697 90.0332 31.1664V18.9541C90.0332 18.4404 90.2341 18.1836 90.6348 18.1836ZM100.009 18.2606H100.326C100.727 18.2606 100.927 18.5175 100.927 19.0311V33.0156C100.927 34.0172 100.991 34.7107 101.118 35.096C101.265 35.4555 101.54 35.6995 101.941 35.8279L102.289 35.9435C102.606 36.0206 102.765 36.1875 102.765 36.4443V36.8681C102.765 37.3047 102.553 37.523 102.131 37.523C101.097 37.523 100.379 37.1506 99.9773 36.4058C99.5977 35.661 99.4074 34.5181 99.4074 32.9771V19.0311C99.4074 18.5175 99.6083 18.2606 100.009 18.2606Z" fill="black"/>
<path d="M74.043 24.5402C74.043 22.5112 74.55 20.9446 75.5635 19.8402C76.577 18.7358 77.8966 18.1836 79.5217 18.1836C81.1475 18.1836 82.4565 18.7486 83.4488 19.8786C84.4412 20.983 84.9377 22.5369 84.9377 24.5402V31.2435C84.9377 33.2467 84.4412 34.8134 83.4488 35.9435C82.4565 37.0479 81.1475 37.6001 79.5217 37.6001C77.9172 37.6001 76.5982 37.0479 75.5635 35.9435C74.55 34.8134 74.043 33.2467 74.043 31.2435V24.5402ZM83.4488 24.5402C83.4488 23.0762 83.0793 21.959 82.3408 21.1885C81.6016 20.3924 80.6622 19.9943 79.5217 19.9943C78.3819 19.9943 77.4319 20.3924 76.6716 21.1885C75.9119 21.959 75.5318 23.0762 75.5318 24.5402V31.2435C75.5318 32.7074 75.9119 33.8375 76.6716 34.6337C77.4319 35.4042 78.3819 35.7894 79.5217 35.7894C80.6622 35.7894 81.6016 35.4042 82.3408 34.6337C83.0793 33.8375 83.4488 32.7074 83.4488 31.2435V24.5402Z" fill="black"/>
<path d="M56.8888 16.681C56.8888 15.0116 57.4483 13.5605 58.5673 12.3277C59.6863 11.0949 61.2063 10.4785 63.1275 10.4785C65.0699 10.4785 66.6956 11.1078 68.0047 12.3663C69.3348 13.599 70.0422 15.4482 70.1268 17.9138C70.1268 18.1193 70.0634 18.3119 69.9365 18.4917C69.8102 18.6458 69.6621 18.7228 69.4929 18.7228H69.1762C69.0287 18.7228 68.8912 18.6586 68.7649 18.5302C68.638 18.3761 68.564 18.1963 68.5428 17.9909C68.48 16.039 67.9412 14.6264 66.9277 13.7531C65.9148 12.8542 64.7003 12.4048 63.2861 12.4048C61.7656 12.4048 60.5835 12.8286 59.7392 13.6761C58.8943 14.5236 58.4723 15.5767 58.4723 16.8351C58.4723 18.0679 58.768 19.0567 59.359 19.8016C60.1822 20.8032 61.7133 21.8305 63.9512 22.8835C66.611 24.1677 68.3848 25.4518 69.2714 26.736C69.947 27.7119 70.2849 29.1117 70.2849 30.9352C70.2849 32.7587 69.6727 34.3254 68.4482 35.6352C67.2444 36.9194 65.5241 37.5614 63.2861 37.5614C61.6181 37.5614 60.0453 37.0093 58.5673 35.9049C57.7861 35.3141 57.1422 34.4923 56.6355 33.4393C56.1499 32.3606 55.8859 31.1278 55.8438 29.7409C55.8438 29.2016 56.0549 28.9319 56.4771 28.9319H56.7621C57.1421 28.9319 57.3533 29.1759 57.3956 29.6639C57.4377 30.7939 57.67 31.7827 58.0923 32.6303C58.5145 33.4521 59.0424 34.0685 59.6757 34.4795C60.9002 35.2757 62.2409 35.6737 63.6974 35.6737C65.1757 35.6737 66.3789 35.2114 67.3078 34.2868C68.2579 33.3366 68.7332 32.1552 68.7332 30.7426C68.7332 29.3043 68.3531 28.1999 67.5928 27.4294C66.9806 26.813 66.3155 26.2866 65.5981 25.8499C64.6686 25.3105 63.2121 24.5529 61.2274 23.5769C59.7075 22.7551 58.5989 21.8177 57.9022 20.7646C57.2266 19.6859 56.8888 18.3248 56.8888 16.681Z" fill="black"/>
</g>
<defs>
<clipPath id="clip0_1181_138">
<rect width="198" height="47" fill="white"/>
</clipPath>
</defs>
</svg>
