<svg width="96" height="96" viewBox="0 0 96 96" fill="none" xmlns="http://www.w3.org/2000/svg">
<path d="M48 96C74.5097 96 96 74.5097 96 48C96 21.4903 74.5097 0 48 0C21.4903 0 0 21.4903 0 48C0 74.5097 21.4903 96 48 96Z" fill="#141414"/>
<path d="M20.2871 64L47.9999 80" stroke="white" stroke-width="3" stroke-linecap="round" stroke-dasharray="3 4"/>
<path d="M48 80L75.7128 64" stroke="white" stroke-width="3" stroke-linecap="round" stroke-dasharray="3 4"/>
<path d="M75.7128 64L48 48" stroke="white" stroke-width="3" stroke-linecap="round" stroke-dasharray="3 4"/>
<path d="M47.9999 48L20.2871 64" stroke="white" stroke-width="3" stroke-linecap="round" stroke-dasharray="3 4"/>
<path d="M20.2871 64V32" stroke="white" stroke-width="3" stroke-linecap="round" stroke-dasharray="3 4"/>
<path d="M48 80V48" stroke="white" stroke-width="3" stroke-linecap="round" stroke-dasharray="3 4"/>
<path d="M48 48V16" stroke="white" stroke-width="3" stroke-linecap="round" stroke-dasharray="3 4"/>
<path d="M75.7129 64V32" stroke="white" stroke-width="3" stroke-linecap="round" stroke-dasharray="3 4"/>
<path d="M20.2871 32L47.9999 48" stroke="white" stroke-width="3" stroke-linecap="round" stroke-dasharray="3 4"/>
<path d="M48 48L75.7128 32" stroke="white" stroke-width="3" stroke-linecap="round" stroke-dasharray="3 4"/>
<path d="M75.7128 32L48 16" stroke="white" stroke-width="3" stroke-linecap="round" stroke-dasharray="3 4"/>
<path d="M47.9999 16L20.2871 32" stroke="white" stroke-width="3" stroke-linecap="round" stroke-dasharray="3 4"/>
</svg>
