<svg width="198" height="38" viewBox="0 0 198 38" fill="none" xmlns="http://www.w3.org/2000/svg">
<g clip-path="url(#clip0_143_201)">
<path d="M12.5742 1.23328C15.3897 -0.41012 18.8798 -0.410093 21.6953 1.23328L29.8223 5.97839C32.5781 7.58755 34.2695 10.5272 34.2695 13.704V23.455C34.2695 26.6317 32.5768 29.5714 29.8223 31.1805L21.6953 35.9247C18.8796 37.5683 15.3899 37.5683 12.5742 35.9247L4.44727 31.1805C1.69141 29.5714 0 26.6317 0 23.455V13.704C0 10.5259 1.69146 7.58618 4.44727 5.97839L12.5742 1.23328ZM17.2812 4.16882C15.5689 4.16882 14.1808 5.54895 14.1807 7.25183C14.1807 7.4919 14.2119 7.72518 14.2646 7.95007L9.56836 10.6473C9.0105 10.1133 8.2524 9.7821 7.41699 9.7821C5.70471 9.78229 4.31738 11.1623 4.31738 12.8651C4.31759 14.2574 5.24478 15.4317 6.51855 15.8153V21.2928C5.24464 21.6765 4.31739 22.852 4.31738 24.243C4.31738 25.9459 5.70471 27.3259 7.41699 27.326C8.23709 27.326 8.98147 27.0076 9.53516 26.4901L14.2627 29.204C14.21 29.4289 14.1797 29.6627 14.1797 29.9042C14.1798 31.607 15.5679 32.9872 17.2803 32.9872C18.9924 32.9869 20.3798 31.6069 20.3799 29.9042C20.3799 28.5145 19.4542 27.3386 18.1816 26.955V19.0966L25.0635 15.1454C25.3993 15.4476 25.8006 15.6814 26.2461 15.8153V21.2928C24.9722 21.6765 24.0449 22.852 24.0449 24.243C24.0449 25.946 25.4331 27.326 27.1455 27.326C28.8578 27.3258 30.2451 25.9459 30.2451 24.243H30.2441C30.2441 22.8506 29.3168 21.6765 28.043 21.2928V15.8153C29.3167 15.4317 30.2439 14.256 30.2441 12.8651C30.2441 11.1621 28.856 9.7821 27.1436 9.7821C25.4312 9.78219 24.0439 11.1622 24.0439 12.8651C24.044 13.1216 24.08 13.3716 24.1396 13.6102L17.2822 17.5468L10.4229 13.6083C10.4825 13.3697 10.5175 13.1216 10.5176 12.8651C10.5176 12.6402 10.4911 12.42 10.4453 12.2089L15.1631 9.49988C15.7182 10.016 16.4611 10.3348 17.2812 10.3348C18.9937 10.3348 20.3818 8.95479 20.3818 7.25183C20.3817 5.54897 18.9936 4.16884 17.2812 4.16882ZM16.3838 19.0956V26.953C15.9217 27.091 15.5059 27.336 15.1631 27.6561L10.4355 24.9413C10.4883 24.7164 10.5186 24.4832 10.5186 24.243C10.5186 22.8508 9.59204 21.6766 8.31836 21.2928V15.8134C8.765 15.6795 9.16625 15.4469 9.50195 15.1434L16.3838 19.0956Z" fill="url(#paint0_linear_143_201)"/>
</g>
<path d="M192.909 19.4812H197.531V21.3107H192.909V26.9399C192.909 27.5497 192.956 28.0579 193.049 28.4644C193.143 28.8554 193.284 29.1681 193.472 29.4026C193.659 29.6216 193.894 29.7779 194.176 29.8717C194.457 29.9656 194.786 30.0125 195.161 30.0125C195.818 30.0125 196.342 29.9421 196.733 29.8014C197.14 29.645 197.421 29.5356 197.578 29.473L198 31.279C197.781 31.3885 197.398 31.5214 196.85 31.6778C196.303 31.8498 195.677 31.9358 194.973 31.9358C194.144 31.9358 193.456 31.8341 192.909 31.6309C192.377 31.412 191.947 31.0914 191.618 30.6692C191.29 30.247 191.055 29.731 190.914 29.1212C190.789 28.4957 190.727 27.7764 190.727 26.9633V16.0802L192.909 15.705V19.4812Z" fill="#626262"/>
<path d="M177.081 25.603C177.081 24.5241 177.237 23.5859 177.55 22.7885C177.863 21.9753 178.277 21.303 178.793 20.7713C179.31 20.2397 179.904 19.8409 180.576 19.5751C181.249 19.3093 181.937 19.1764 182.641 19.1764C184.284 19.1764 185.543 19.6924 186.419 20.7244C187.295 21.7408 187.733 23.2966 187.733 25.392C187.733 25.4858 187.733 25.6109 187.733 25.7672C187.733 25.908 187.725 26.0409 187.709 26.166H179.356C179.45 27.4325 179.818 28.3942 180.459 29.0509C181.1 29.7077 182.102 30.036 183.462 30.036C184.229 30.036 184.87 29.9735 185.386 29.8484C185.918 29.7077 186.317 29.5747 186.583 29.4497L186.888 31.2791C186.622 31.4199 186.153 31.5684 185.48 31.7248C184.823 31.8812 184.072 31.9593 183.228 31.9593C182.164 31.9593 181.241 31.803 180.459 31.4902C179.693 31.1619 179.059 30.7162 178.559 30.1533C178.058 29.5904 177.683 28.9258 177.433 28.1596C177.198 27.3778 177.081 26.5256 177.081 25.603ZM185.457 24.4068C185.472 23.4217 185.222 22.6165 184.706 21.991C184.205 21.3499 183.509 21.0293 182.618 21.0293C182.117 21.0293 181.671 21.131 181.28 21.3342C180.905 21.5219 180.584 21.7721 180.318 22.0848C180.052 22.3975 179.841 22.7572 179.685 23.1637C179.544 23.5703 179.45 23.9847 179.403 24.4068H185.457Z" fill="#626262"/>
<path d="M170.533 24.9697C171.002 25.3294 171.494 25.775 172.011 26.3067C172.542 26.8383 173.059 27.4169 173.559 28.0423C174.075 28.6522 174.56 29.2776 175.014 29.9187C175.467 30.5442 175.851 31.1306 176.164 31.6778H173.606C173.278 31.1306 172.894 30.5755 172.456 30.0125C172.034 29.434 171.588 28.8867 171.119 28.3707C170.65 27.839 170.173 27.3543 169.688 26.9165C169.203 26.4787 168.742 26.1112 168.304 25.8141V31.6778H166.122V13.8521L168.304 13.4768V24.5944C168.679 24.2192 169.093 23.8048 169.547 23.3513C170.001 22.8979 170.447 22.4366 170.884 21.9675C171.322 21.4984 171.737 21.0528 172.128 20.6306C172.519 20.1927 172.855 19.8096 173.137 19.4813H175.694C175.335 19.8722 174.943 20.3022 174.521 20.7713C174.099 21.2404 173.661 21.7173 173.207 22.202C172.754 22.6711 172.292 23.1481 171.823 23.6328C171.369 24.1019 170.939 24.5475 170.533 24.9697Z" fill="#626262"/>
<path d="M161.576 19.2233C161.764 19.2233 161.975 19.2389 162.21 19.2702C162.46 19.2858 162.702 19.3171 162.937 19.364C163.172 19.3953 163.383 19.4344 163.57 19.4813C163.774 19.5125 163.922 19.5438 164.016 19.5751L163.641 21.4749C163.469 21.4124 163.179 21.342 162.773 21.2638C162.382 21.17 161.873 21.1231 161.248 21.1231C160.841 21.1231 160.434 21.17 160.028 21.2638C159.637 21.342 159.378 21.3968 159.253 21.428V31.6778H157.071V19.9973C157.587 19.8096 158.229 19.6376 158.995 19.4813C159.762 19.3093 160.622 19.2233 161.576 19.2233Z" fill="#626262"/>
<path d="M148.942 30.1064C149.459 30.1064 149.912 30.0986 150.303 30.0829C150.71 30.0517 151.046 30.0048 151.312 29.9422V26.3067C151.156 26.2285 150.898 26.166 150.538 26.1191C150.194 26.0565 149.771 26.0252 149.271 26.0252C148.942 26.0252 148.59 26.0487 148.215 26.0956C147.855 26.1425 147.519 26.2441 147.206 26.4005C146.909 26.5412 146.659 26.7445 146.455 27.0103C146.252 27.2605 146.15 27.5967 146.15 28.0189C146.15 28.8007 146.401 29.348 146.901 29.6608C147.402 29.9578 148.082 30.1064 148.942 30.1064ZM148.755 19.1764C149.631 19.1764 150.366 19.2937 150.96 19.5282C151.57 19.7471 152.055 20.0677 152.415 20.4899C152.79 20.8964 153.056 21.389 153.213 21.9675C153.369 22.5304 153.447 23.1559 153.447 23.8439V31.4668C153.259 31.4981 152.994 31.545 152.649 31.6075C152.321 31.6544 151.946 31.7013 151.523 31.7482C151.101 31.7952 150.639 31.8342 150.139 31.8655C149.654 31.9124 149.169 31.9359 148.684 31.9359C147.996 31.9359 147.363 31.8655 146.784 31.7248C146.205 31.5841 145.705 31.3651 145.282 31.068C144.86 30.7553 144.531 30.3488 144.297 29.8484C144.062 29.348 143.945 28.746 143.945 28.0424C143.945 27.37 144.078 26.7914 144.344 26.3067C144.625 25.822 145.001 25.431 145.47 25.1339C145.939 24.8369 146.487 24.6179 147.112 24.4772C147.738 24.3365 148.395 24.2661 149.083 24.2661C149.302 24.2661 149.529 24.2818 149.764 24.313C149.998 24.3287 150.217 24.3599 150.42 24.4068C150.639 24.4381 150.827 24.4694 150.984 24.5007C151.14 24.5319 151.249 24.5554 151.312 24.571V23.9612C151.312 23.6016 151.273 23.2497 151.195 22.9057C151.117 22.5461 150.976 22.2334 150.772 21.9675C150.569 21.6861 150.288 21.4672 149.928 21.3108C149.584 21.1388 149.13 21.0528 148.567 21.0528C147.847 21.0528 147.214 21.1075 146.666 21.217C146.135 21.3108 145.736 21.4124 145.47 21.5219L145.212 19.7159C145.493 19.5908 145.963 19.4735 146.62 19.364C147.277 19.2389 147.988 19.1764 148.755 19.1764Z" fill="#626262"/>
<path d="M131.812 29.4262C131.656 29.0509 131.445 28.574 131.179 27.9954C130.929 27.4169 130.655 26.7914 130.358 26.119C130.061 25.4467 129.74 24.7587 129.396 24.055C129.067 23.3357 128.755 22.6633 128.457 22.0379C128.16 21.3968 127.879 20.826 127.613 20.3257C127.362 19.8253 127.159 19.4422 127.003 19.1764C126.831 21.0215 126.69 23.023 126.58 25.1808C126.471 27.3231 126.377 29.4887 126.299 31.6779H124.07C124.132 30.2706 124.203 28.8554 124.281 27.4325C124.359 25.9939 124.445 24.5866 124.539 23.2106C124.649 21.819 124.758 20.4664 124.868 19.1529C124.993 17.8394 125.126 16.5963 125.266 15.4236H127.261C127.683 16.1116 128.137 16.9247 128.622 17.8629C129.106 18.8011 129.591 19.7862 130.076 20.8182C130.561 21.8346 131.03 22.8588 131.484 23.8908C131.938 24.9072 132.352 25.8376 132.727 26.682C133.103 25.8376 133.517 24.9072 133.971 23.8908C134.425 22.8588 134.894 21.8346 135.379 20.8182C135.864 19.7862 136.349 18.8011 136.833 17.8629C137.318 16.9247 137.772 16.1116 138.194 15.4236H140.189C140.72 20.6619 141.119 26.0799 141.385 31.6779H139.156C139.078 29.4887 138.984 27.3231 138.875 25.1808C138.765 23.023 138.624 21.0215 138.452 19.1764C138.296 19.4422 138.085 19.8253 137.819 20.3257C137.569 20.826 137.295 21.3968 136.998 22.0379C136.7 22.6633 136.38 23.3357 136.036 24.055C135.707 24.7587 135.394 25.4467 135.097 26.119C134.8 26.7914 134.518 27.4169 134.253 27.9954C134.002 28.574 133.799 29.0509 133.643 29.4262H131.812Z" fill="#626262"/>
<path d="M117.908 31.5281C116.688 31.5055 115.672 31.3699 114.858 31.1214C114.068 30.8729 113.435 30.5228 112.961 30.071C112.487 29.5966 112.148 29.0206 111.944 28.3429C111.764 27.6426 111.673 26.852 111.673 25.971V5.57247L115.773 4.89478V25.1916C115.773 25.6886 115.807 26.1065 115.875 26.4454C115.965 26.7842 116.112 27.0779 116.316 27.3264C116.519 27.5523 116.79 27.733 117.129 27.8685C117.49 27.9815 117.942 28.0718 118.484 28.1396L117.908 31.5281Z" fill="black"/>
<path d="M106.523 30.647C105.732 30.8503 104.705 31.0536 103.439 31.2569C102.174 31.4828 100.785 31.5958 99.2717 31.5958C97.8485 31.5958 96.6513 31.3925 95.6799 30.9859C94.7312 30.5792 93.9631 30.0145 93.3758 29.2916C92.811 28.5688 92.4044 27.7103 92.1559 26.7164C91.9074 25.6999 91.7832 24.593 91.7832 23.3957V13.4675H95.8832V22.7519C95.8832 24.6494 96.1543 26.0048 96.6965 26.8181C97.2612 27.6313 98.2326 28.0379 99.6105 28.0379C100.108 28.0379 100.627 28.0153 101.169 27.9701C101.734 27.9249 102.152 27.8685 102.423 27.8007V13.4675H106.523V30.647Z" fill="black"/>
<path d="M87.7625 22.3115C87.7625 23.712 87.5592 24.9884 87.1526 26.1404C86.746 27.2925 86.1699 28.2752 85.4245 29.0884C84.679 29.9016 83.7754 30.5341 82.7137 30.9859C81.6746 31.4377 80.5225 31.6636 79.2575 31.6636C77.9924 31.6636 76.8404 31.4377 75.8012 30.9859C74.7621 30.5341 73.8698 29.9016 73.1244 29.0884C72.3789 28.2752 71.7916 27.2925 71.3624 26.1404C70.9557 24.9884 70.7524 23.712 70.7524 22.3115C70.7524 20.9109 70.9557 19.6459 71.3624 18.5164C71.7916 17.3643 72.3789 16.3817 73.1244 15.5684C73.8924 14.7552 74.796 14.134 75.8351 13.7048C76.8743 13.253 78.015 13.0271 79.2575 13.0271C80.4999 13.0271 81.6407 13.253 82.6798 13.7048C83.7415 14.134 84.6451 14.7552 85.3906 15.5684C86.136 16.3817 86.7121 17.3643 87.1187 18.5164C87.5479 19.6459 87.7625 20.9109 87.7625 22.3115ZM83.5608 22.3115C83.5608 20.5495 83.1768 19.1602 82.4087 18.1437C81.6633 17.1045 80.6129 16.585 79.2575 16.585C77.9021 16.585 76.8404 17.1045 76.0723 18.1437C75.3269 19.1602 74.9541 20.5495 74.9541 22.3115C74.9541 24.0961 75.3269 25.5079 76.0723 26.547C76.8404 27.5862 77.9021 28.1057 79.2575 28.1057C80.6129 28.1057 81.6633 27.5862 82.4087 26.547C83.1768 25.5079 83.5608 24.0961 83.5608 22.3115Z" fill="black"/>
<path d="M59.3318 28.0041C60.8679 28.0041 61.986 27.7443 62.6863 27.2247C63.3866 26.7051 63.7367 25.971 63.7367 25.0222C63.7367 24.4575 63.6125 23.9718 63.364 23.5652C63.1381 23.1586 62.7993 22.7971 62.3475 22.4809C61.9183 22.142 61.3874 21.8371 60.7549 21.566C60.1224 21.2723 59.3995 20.9899 58.5863 20.7189C57.7731 20.4252 56.9824 20.1089 56.2144 19.7701C55.4689 19.4087 54.8025 18.9682 54.2152 18.4486C53.6504 17.929 53.1873 17.3078 52.8259 16.585C52.4871 15.8621 52.3176 14.9924 52.3176 13.9758C52.3176 11.8524 53.0518 10.1921 54.5201 8.99481C55.9885 7.77496 57.9877 7.16504 60.5177 7.16504C61.986 7.16504 63.285 7.33446 64.4144 7.67331C65.5665 7.98956 66.4701 8.33971 67.1252 8.72373L65.8037 12.18C65.0357 11.7508 64.1885 11.4232 63.2624 11.1973C62.3588 10.9714 61.4213 10.8585 60.4499 10.8585C59.2979 10.8585 58.3943 11.0957 57.7392 11.57C57.1067 12.0444 56.7904 12.7108 56.7904 13.5692C56.7904 14.0888 56.8921 14.5406 57.0954 14.9246C57.3213 15.286 57.6262 15.6136 58.0103 15.9073C58.4169 16.2009 58.88 16.472 59.3995 16.7205C59.9417 16.969 60.529 17.2062 61.1615 17.4321C62.2684 17.8387 63.2511 18.2566 64.1095 18.6858C64.9905 19.0924 65.7246 19.5894 66.312 20.1767C66.9219 20.7415 67.385 21.4192 67.7012 22.2098C68.0175 22.9778 68.1756 23.9153 68.1756 25.0222C68.1756 27.1456 67.4189 28.7947 65.9054 29.9694C64.4144 31.1214 62.2232 31.6975 59.3318 31.6975C58.3604 31.6975 57.4681 31.6297 56.6549 31.4942C55.8642 31.3812 55.1527 31.2344 54.5201 31.0537C53.9102 30.8729 53.3794 30.6922 52.9276 30.5115C52.4758 30.3082 52.1143 30.1275 51.8433 29.9694L53.097 26.4792C53.7069 26.8181 54.5314 27.1569 55.5706 27.4958C56.6097 27.8346 57.8634 28.0041 59.3318 28.0041Z" fill="black"/>
<defs>
<linearGradient id="paint0_linear_143_201" x1="32.772" y1="0.00085417" x2="1.70138" y2="37.3272" gradientUnits="userSpaceOnUse">
<stop offset="0.1" stop-color="#86D3FF"/>
<stop offset="1" stop-color="#C41DFF"/>
</linearGradient>
<clipPath id="clip0_143_201">
<rect width="34.2696" height="37.1575" fill="white"/>
</clipPath>
</defs>
</svg>
