<svg width="44" height="47" viewBox="0 0 44 47" fill="none" xmlns="http://www.w3.org/2000/svg">
<g clip-path="url(#clip0_143_118)">
<path d="M16.1445 1.56055C19.7596 -0.518354 24.2404 -0.518354 27.8555 1.56055L38.2891 7.56152C41.8276 9.59688 44 13.3156 44 17.334V29.668C44 33.6863 41.8258 37.4041 38.2891 39.4395L27.8555 45.4414C24.2405 47.5202 19.7595 47.5202 16.1445 45.4414L5.71094 39.4395C2.17241 37.4041 5.64107e-06 33.6863 0 29.668V17.334C0 13.3139 2.17241 9.59513 5.71094 7.56152L16.1445 1.56055ZM22.1875 5.27344C19.9891 5.27369 18.2081 7.01901 18.208 9.17285C18.208 9.47658 18.2467 9.77211 18.3145 10.0566L12.2852 13.4668C11.5689 12.7913 10.596 12.3731 9.52344 12.373C7.32477 12.373 5.54297 14.1184 5.54297 16.2725C5.54304 18.0337 6.73356 19.5186 8.36914 20.0039V26.9326C6.73351 27.4179 5.54297 28.9055 5.54297 30.665C5.54317 32.8189 7.32489 34.5645 9.52344 34.5645C10.5763 34.5644 11.5313 34.1613 12.2422 33.5068L18.3125 36.9404C18.2449 37.2248 18.2061 37.5199 18.2061 37.8252C18.2061 39.9792 19.9879 41.7246 22.1865 41.7246C24.385 41.7244 26.1669 39.9791 26.167 37.8252C26.167 36.0675 24.9784 34.5801 23.3447 34.0947V24.1553L32.1797 19.1582C32.6109 19.5405 33.1263 19.8346 33.6982 20.0039V26.9326C32.0626 27.4179 30.8721 28.9055 30.8721 30.665C30.8723 32.8189 32.654 34.5644 34.8525 34.5645C37.0511 34.5645 38.8328 32.8189 38.833 30.665H38.8311C38.8311 28.9037 37.6405 27.4179 36.0049 26.9326V20.0039C37.6405 19.5186 38.831 18.0319 38.8311 16.2725C38.8311 14.1184 37.0493 12.373 34.8506 12.373C32.652 12.3731 30.8701 14.1185 30.8701 16.2725C30.8701 16.597 30.9166 16.9129 30.9932 17.2148L22.1895 22.1953L13.3828 17.2129C13.4594 16.911 13.5039 16.597 13.5039 16.2725C13.5039 15.988 13.4699 15.7104 13.4111 15.4434L19.4688 12.0166C20.1813 12.6694 21.1347 13.0721 22.1875 13.0723C24.3862 13.0723 26.168 11.3269 26.168 9.17285C26.1679 7.01886 24.3861 5.27344 22.1875 5.27344ZM21.0352 24.1533V34.0928C20.4418 34.2673 19.9088 34.5765 19.4688 34.9814L13.3984 31.5479C13.4661 31.2634 13.5058 30.9686 13.5059 30.665C13.5059 28.9037 12.3153 27.4179 10.6797 26.9326V20.0029C11.2533 19.8336 11.7681 19.5382 12.1992 19.1543L21.0352 24.1533Z" fill="url(#paint0_linear_143_118)"/>
</g>
<defs>
<linearGradient id="paint0_linear_143_118" x1="42.0772" y1="0.000976156" x2="2.887" y2="47.7908" gradientUnits="userSpaceOnUse">
<stop offset="0.1" stop-color="#86D3FF"/>
<stop offset="0.91" stop-color="#C41DFF"/>
</linearGradient>
<clipPath id="clip0_143_118">
<rect width="44" height="47" fill="white"/>
</clipPath>
</defs>
</svg>
