<svg width="44" height="47" viewBox="0 0 44 47" fill="none" xmlns="http://www.w3.org/2000/svg">
<g clip-path="url(#clip0_143_95)">
<path d="M16.1445 1.55994C19.7595 -0.518791 24.2405 -0.518791 27.8555 1.55994L38.2891 7.56189C41.8275 9.59722 43.9999 13.3151 44 17.3334V29.6683C43.9998 33.6865 41.8257 37.4045 38.2891 39.4398L27.8555 45.4408C24.2404 47.5197 19.7596 47.5197 16.1445 45.4408L5.71094 39.4398C2.17254 37.4045 0.000168385 33.6865 0 29.6683V17.3334C5.65921e-05 13.3133 2.17245 9.59547 5.71094 7.56189L16.1445 1.55994ZM22.1875 5.27283C19.9891 5.27308 18.208 7.01931 18.208 9.17322C18.208 9.47679 18.2468 9.77164 18.3145 10.056L12.2852 13.4672C11.5689 12.7916 10.596 12.3724 9.52344 12.3724C7.3249 12.3724 5.54317 14.118 5.54297 16.2719C5.54297 18.0331 6.73351 19.519 8.36914 20.0043V26.933C6.73356 27.4182 5.54305 28.9049 5.54297 30.6644C5.54297 32.8185 7.32477 34.5638 9.52344 34.5638C10.5764 34.5638 11.5313 34.1608 12.2422 33.5062L18.3125 36.9398C18.2448 37.2242 18.2061 37.5193 18.2061 37.8246C18.2061 39.9786 19.9879 41.725 22.1865 41.725C24.385 41.7248 26.167 39.9785 26.167 37.8246C26.1668 36.0671 24.9782 34.5805 23.3447 34.0951V24.1556L32.1797 19.1576C32.6109 19.5399 33.1263 19.8349 33.6982 20.0043V26.933C32.0627 27.4182 30.8721 28.9049 30.8721 30.6644C30.8721 32.8185 32.6539 34.5638 34.8525 34.5638C37.0512 34.5638 38.833 32.8185 38.833 30.6644H38.8311C38.831 28.9032 37.6405 27.4182 36.0049 26.933V20.0043C37.6405 19.519 38.8311 18.0314 38.8311 16.2719C38.8309 14.118 37.0491 12.3724 34.8506 12.3724C32.6521 12.3725 30.8703 14.118 30.8701 16.2719C30.8701 16.5965 30.9165 16.9132 30.9932 17.2152L22.1895 22.1947L13.3828 17.2133C13.4594 16.9113 13.5039 16.5965 13.5039 16.2719C13.5039 15.9874 13.4699 15.7097 13.4111 15.4427L19.4688 12.016C20.1813 12.6687 21.1347 13.0725 22.1875 13.0726C24.3861 13.0726 26.1678 11.3271 26.168 9.17322C26.168 7.01916 24.3862 5.27283 22.1875 5.27283ZM21.0352 24.1537V34.0931C20.4419 34.2677 19.9088 34.5769 19.4688 34.9818L13.3984 31.5482C13.4661 31.2637 13.5059 30.9682 13.5059 30.6644C13.5058 28.9032 12.3152 27.4183 10.6797 26.933V20.0023C11.2532 19.8331 11.7681 19.5385 12.1992 19.1547L21.0352 24.1537Z" fill="url(#paint0_linear_143_95)"/>
</g>
<defs>
<linearGradient id="paint0_linear_143_95" x1="42.0772" y1="0.00134237" x2="2.887" y2="47.7912" gradientUnits="userSpaceOnUse">
<stop offset="0.1" stop-color="#86D3FF"/>
<stop offset="1" stop-color="#C41DFF"/>
</linearGradient>
<clipPath id="clip0_143_95">
<rect width="44" height="47" fill="white"/>
</clipPath>
</defs>
</svg>
